<svg width="42" height="42" viewBox="0 0 42 42" fill="none" xmlns="http://www.w3.org/2000/svg">
<path d="M29.2467 15.3097C28.2338 15.3097 27.2621 14.9063 26.5456 14.1882C25.8292 13.4701 25.4265 12.496 25.4265 11.4802C25.4265 11.4101 25.431 11.3305 25.4363 11.2371C25.4371 11.2225 25.438 11.2074 25.4388 11.1921C25.4449 11.0833 25.4508 10.9605 25.448 10.839C25.4426 10.6124 25.407 10.3101 25.2012 10.1038C25.0019 9.90407 24.6965 9.84734 24.4593 9.82613C24.2687 9.80907 24.0649 9.81197 23.9065 9.81423C23.8589 9.81491 23.8153 9.81549 23.7775 9.81549C23.7396 9.81549 23.6965 9.81491 23.6497 9.81423C23.4954 9.81197 23.3005 9.80912 23.1192 9.82623C22.8891 9.84797 22.6002 9.90644 22.4033 10.1038C22.1975 10.3101 22.162 10.6124 22.1566 10.839C22.1537 10.9605 22.1596 11.0833 22.1657 11.1921C22.1665 11.2074 22.1674 11.2224 22.1682 11.2371C22.1735 11.3305 22.178 11.4101 22.178 11.4802V25.1222C22.178 25.8796 21.9539 26.6201 21.534 27.2499C21.1142 27.8796 20.5175 28.3704 19.8195 28.6602C19.1215 28.9499 18.3535 29.0257 17.6126 28.878C16.8717 28.7303 16.191 28.3657 15.6568 27.8302C15.1224 27.2947 14.7585 26.6123 14.6111 25.8693C14.4636 25.1264 14.5393 24.3563 14.8285 23.6565C15.1177 22.9567 15.6074 22.3586 16.2356 21.938C16.8639 21.5172 17.6024 21.2927 18.3578 21.2927C18.4191 21.2927 18.4866 21.2953 18.564 21.2982C18.5932 21.2993 18.6238 21.3004 18.6559 21.3015C18.7688 21.3053 18.895 21.308 19.0203 21.3018C19.2526 21.2903 19.5599 21.2466 19.7638 21.0423C19.9674 20.8382 20.0093 20.5365 20.0192 20.3073C20.0245 20.1843 20.021 20.0604 20.0165 19.9498C20.0155 19.923 20.0144 19.8973 20.0133 19.8726C20.0099 19.791 20.0068 19.7201 20.0068 19.656C20.0068 19.638 20.0069 19.6193 20.0069 19.5999C20.0073 19.4321 20.0079 19.214 19.98 19.006C19.9496 18.7798 19.8798 18.5103 19.6895 18.3195C19.4939 18.1235 19.218 18.0657 18.9941 18.0453C18.8269 18.0301 18.6444 18.0334 18.4966 18.0362C18.4455 18.0371 18.3985 18.038 18.3578 18.038C16.9596 18.038 15.5929 18.4536 14.4304 19.2321C13.268 20.0105 12.362 21.117 11.8271 22.4114C11.2921 23.7058 11.1522 25.13 11.4249 26.5041C11.6976 27.8782 12.3707 29.1404 13.3592 30.1312C14.3478 31.122 15.6073 31.7968 16.9786 32.0701C18.35 32.3435 19.7714 32.2032 21.0631 31.667C22.3548 31.1307 23.4588 30.2226 24.2354 29.0577C25.012 27.8927 25.4265 26.5231 25.4265 25.1222V17.4435C26.5609 18.18 27.8883 18.5716 29.2474 18.5643C29.3193 18.5644 29.401 18.5695 29.4974 18.5755C29.508 18.5762 29.5187 18.5769 29.5296 18.5775C29.6362 18.5841 29.7566 18.591 29.8759 18.5889C30.0994 18.5851 30.397 18.5511 30.6032 18.3444C30.7973 18.1499 30.8648 17.8563 30.894 17.6198C30.9215 17.3971 30.921 17.1643 30.9206 16.9931C30.9205 16.9735 30.9205 16.9548 30.9205 16.937C30.9205 16.9191 30.9205 16.9003 30.9206 16.8809C30.921 16.713 30.9215 16.4942 30.8936 16.2855C30.8634 16.0589 30.7937 15.7882 30.6032 15.5973C30.4071 15.4009 30.1242 15.3419 29.8965 15.3201C29.719 15.3031 29.5278 15.306 29.3751 15.3083C29.3282 15.309 29.2849 15.3097 29.2467 15.3097Z" fill="#CFD4D9"/>
<path d="M41 21C41 9.9543 32.0457 1 21 1C9.9543 1 1 9.9543 1 21C1 32.0457 9.9543 41 21 41C32.0457 41 41 32.0457 41 21Z" stroke="#545E67"/>
</svg>
